<svg width="42" height="41" viewBox="0 0 42 41" fill="none" xmlns="http://www.w3.org/2000/svg">
<path d="M41.9653 35.0737C41.9272 35.1701 41.8802 35.2633 41.8535 35.3628C41.5733 36.3816 41.0872 37.291 40.3965 38.0884C39.7305 38.8571 38.9272 39.4303 37.976 39.8012C37.1766 40.1138 36.3415 40.2778 35.498 40.3835C34.792 40.4716 34.078 40.5179 33.366 40.527C31.6842 40.5494 30.0025 40.5404 28.3219 40.5423C28.2266 40.5423 28.0869 40.5557 28.0468 40.5034C27.9709 40.4031 28.0952 40.3127 28.1504 40.2286C29.4011 38.3271 30.6539 36.4276 31.9078 34.5292C33.0138 32.8554 34.1229 31.1835 35.2281 29.5096C36.1935 28.0478 37.1562 26.5831 38.1205 25.1204C39.0214 23.752 39.9243 22.3856 40.82 21.015C40.9165 20.8675 40.9751 20.693 41.0448 20.5291C41.088 20.4287 41.0459 20.3691 40.9381 20.3631C40.8243 20.3568 40.7094 20.3548 40.5945 20.3548C37.8713 20.3486 35.1481 20.3458 32.425 20.3364C31.8925 20.3344 31.36 20.319 30.8286 20.2861C30.3894 20.2594 29.9789 20.1363 29.6353 19.8331C29.3377 19.5696 29.0936 19.2673 28.8749 18.9382C28.3384 18.1314 27.9145 17.2623 27.4773 16.4021C26.8043 15.0747 26.1628 13.7299 25.5063 12.3942C25.3945 12.1666 25.2887 11.9338 25.1493 11.7238C24.7553 11.1262 24.2003 10.7152 23.5589 10.4117C23.4892 10.379 23.4306 10.3225 23.3668 10.2773C23.4365 10.2423 23.5054 10.2085 23.5751 10.1739C23.5822 10.1707 23.5916 10.1707 23.5987 10.1687C24.3016 10.0028 24.988 9.79362 25.6221 9.43469C26.3753 9.0104 26.9807 8.43208 27.4002 7.67983C28.0343 6.54309 28.1708 5.32847 27.8662 4.06952C27.5163 2.62841 26.6461 1.59824 25.3319 0.925566C24.5499 0.525715 23.7096 0.316553 22.848 0.194637C22.0691 0.0849412 21.2832 0.0377662 20.4952 0.0369137C18.9776 0.0357769 17.4603 0.0306616 15.9427 0.0278197C15.5857 0.0266829 15.601 -0.0378275 15.6019 0.369128C15.6039 2.29421 15.6101 4.21929 15.611 6.14324C15.6121 7.53632 15.607 8.92827 15.6047 10.3202C15.6047 10.5621 15.6138 10.5692 15.8519 10.5734H15.9011C16.9508 10.5837 18.0005 10.599 19.0501 10.6033C19.7991 10.6053 20.4434 10.8789 20.9976 11.3609C21.3762 11.6889 21.6973 12.0773 21.9528 12.509C22.4238 13.3045 22.8966 14.0999 23.3299 14.9149C24.1599 16.476 24.8566 18.1007 25.5555 19.7234C25.6952 20.0454 25.8499 20.3611 25.9956 20.6808C26.0818 20.8672 26.2214 20.9352 26.4277 20.9298C27.739 20.8991 29.0513 20.8661 30.3626 20.8527C32.5123 20.8303 34.6609 20.8221 36.8103 20.8107C36.9374 20.8095 37.0657 20.8272 37.194 20.8354C37.2196 20.9943 37.0944 21.0866 37.0228 21.1952C35.692 23.2021 34.3571 25.2053 33.0221 27.2083C31.8555 28.96 30.6889 30.7109 29.5223 32.4626C28.6411 33.7838 27.7595 35.1061 26.8782 36.4276C26.2607 37.3532 25.6408 38.2788 25.0233 39.2055C24.7505 39.6145 24.4754 40.0214 24.2097 40.4346C24.146 40.535 24.0968 40.654 24.0763 40.7697C24.0507 40.9081 24.0936 40.9482 24.2322 40.9584C24.3389 40.9655 24.4455 40.9584 24.5522 40.9584H32.9925H33.0381L41.5067 40.9973C41.5889 40.9973 41.6709 40.9985 41.7519 40.9953C41.8649 40.9914 41.9397 40.9399 41.9531 40.8211C41.9704 40.6674 41.9983 40.5136 41.9983 40.3588C42.0014 38.696 42.0014 37.0335 41.9983 35.3707C41.9983 35.2712 41.9767 35.1718 41.9656 35.0735L41.9653 35.0737ZM21.1435 10.0389C20.7609 10.1619 20.3689 10.2335 19.9624 10.2276C19.4051 10.2205 18.847 10.2276 18.29 10.2276C17.9464 10.2276 17.9453 10.2264 17.9453 9.89251V5.34808H17.935V0.803934C17.9362 0.500422 17.937 0.500422 18.2499 0.49957C18.7659 0.497581 19.2831 0.494454 19.7994 0.493318C20.3956 0.492181 20.9793 0.584542 21.5232 0.823259C22.1829 1.11341 22.7607 1.52548 23.2306 2.07993C23.8009 2.75232 24.1582 3.5273 24.2936 4.39037C24.3747 4.90589 24.3881 5.42879 24.3337 5.95652C24.2751 6.52547 24.1551 7.07281 23.909 7.58435C23.3313 8.78475 22.4221 9.6231 21.1438 10.0383L21.1435 10.0389Z" fill="white"/>
<path d="M7.63673 0C10.0729 0 12.509 0 14.9449 0C14.9531 0 14.9614 0 14.9696 0C15.2711 0.00113675 15.2723 0.00113675 15.2723 0.296691C15.2731 3.56484 15.2734 6.8327 15.274 10.1009C15.274 10.1173 15.274 10.1335 15.274 10.15C15.2709 10.5666 15.2421 10.5882 14.8208 10.5388C14.7179 10.5266 14.6758 10.4828 14.6763 10.3836C14.6777 10.1625 14.6772 9.94142 14.6763 9.72033C14.6715 8.03311 14.6769 6.34589 14.6567 4.65896C14.649 4.02181 14.5782 3.38552 14.5429 2.74865C14.5241 2.40763 14.3737 2.14135 14.1159 1.92707C13.5826 1.48317 12.9889 1.13391 12.3457 0.883253C12.03 0.7602 11.6824 0.715582 11.347 0.646241C11.147 0.605034 10.9433 0.568374 10.7399 0.557575C10.086 0.522904 9.43141 0.48738 8.77686 0.478571C8.08817 0.469192 7.39921 0.490506 6.71024 0.498464C6.70199 0.498464 6.69374 0.498464 6.68577 0.498464C6.50277 0.501495 6.41051 0.590919 6.40899 0.766736C6.40814 0.881263 6.40842 0.996075 6.40842 1.1106C6.41098 3.77258 6.41326 6.43456 6.4161 9.09625C6.41639 9.39891 6.43289 9.42932 6.72446 9.43017C7.66063 9.43386 8.59196 9.38498 9.48972 9.08204C10.1955 8.84389 10.8156 8.47587 11.2676 7.86828C11.5996 7.42182 11.8172 6.92108 11.9276 6.37715C11.9893 6.07307 12.0357 5.76587 12.0832 5.45894C12.1176 5.23728 12.1432 5.19664 12.2718 5.20687C12.4109 5.21824 12.4592 5.28474 12.4575 5.49532C12.455 5.77354 12.4382 6.05176 12.4362 6.32998C12.4234 8.18089 12.4137 10.0321 12.4009 11.883C12.3961 12.5872 12.3861 13.2917 12.3773 13.9959C12.3764 14.0692 12.3787 14.1448 12.3631 14.2156C12.3406 14.3165 12.2558 14.3259 12.1688 14.3216C12.0897 14.3176 12.0229 14.3008 12.0098 14.2048C11.9859 14.0263 11.9603 13.8481 11.9333 13.67C11.8394 13.053 11.694 12.4508 11.3879 11.8998C10.9243 11.0645 10.2225 10.5183 9.31335 10.2404C8.46765 9.98178 7.59719 9.89823 6.71593 9.90846C6.40984 9.91187 6.40728 9.91272 6.40757 10.202C6.40984 12.438 6.40672 14.674 6.42009 16.91C6.4235 17.4829 6.50315 18.0504 6.70796 18.5943C6.97137 19.2932 7.44614 19.7774 8.14052 20.0534C8.50207 20.1969 8.88182 20.2475 9.26357 20.2929C9.32843 20.3006 9.39272 20.3125 9.45672 20.3262C9.55685 20.3478 9.57904 20.4197 9.57477 20.5112C9.56994 20.6169 9.50878 20.6527 9.41377 20.653C9.34806 20.6533 9.28263 20.6541 9.21692 20.6541C6.23945 20.6541 3.26198 20.6541 0.284513 20.6544C0.2518 20.6544 0.218802 20.6538 0.186089 20.6544C0.0893717 20.6564 0.00659308 20.6507 0.00659308 20.5166C0.00659308 20.3671 0.0290656 20.3256 0.178408 20.3034C0.412806 20.2685 0.649763 20.2477 0.883022 20.206C1.87693 20.0289 2.53376 19.4551 2.85293 18.5023C3.01763 18.0109 3.08789 17.5002 3.09813 16.983C3.17095 13.3878 3.16896 9.79222 3.13995 6.19669C3.13255 5.29582 3.11947 4.39495 3.09443 3.49436C3.08021 2.98567 2.98918 2.48578 2.8003 2.01034C2.55538 1.3945 2.1247 0.955436 1.50486 0.708762C1.07788 0.538818 0.640091 0.409229 0.180969 0.358075C0.0205318 0.341593 -0.0283958 0.267704 0.015127 0.113675C0.0256521 0.0764463 0.0705971 0.0346708 0.108431 0.0224508C0.161056 0.00568374 0.221931 0.0133568 0.279108 0.0133568C2.73146 0.0133568 5.1841 0.0133568 7.63645 0.0133568V0H7.63673Z" fill="white"/>
<path d="M15.6102 30.6653C15.6102 27.3406 15.6102 24.0161 15.6102 20.6914C15.6102 20.4652 15.7218 20.3519 15.945 20.3516C17.577 20.3516 19.209 20.3516 20.8406 20.3521C20.8981 20.3521 20.9556 20.353 21.0127 20.3547C21.1129 20.3575 21.1592 20.4107 21.1632 20.5096C21.1669 20.6028 21.1373 20.6735 21.0389 20.6912C20.9021 20.7156 20.7641 20.7358 20.6262 20.7534C19.9261 20.8421 19.2912 21.0711 18.7897 21.5929C18.4677 21.9279 18.2944 22.3394 18.1826 22.7805C18.0796 23.1863 18.0287 23.5995 18.0265 24.0187C18.0074 27.3431 17.9844 30.6675 17.9707 33.9917C17.9664 35.0315 17.9798 36.0716 17.9991 37.1112C18.0097 37.6673 18.0651 38.2192 18.235 38.7561C18.4961 39.5813 19.0346 40.125 19.8536 40.3998C20.1966 40.5149 20.5468 40.5911 20.9078 40.6178C20.9322 40.6195 20.957 40.6206 20.9812 40.6243C21.124 40.6468 21.1661 40.6894 21.1601 40.8056C21.1544 40.9165 21.1106 40.9506 20.9558 40.9594C20.8987 40.9625 20.8412 40.9602 20.7837 40.9602C19.1518 40.9602 17.5198 40.9602 15.8881 40.9602C15.8472 40.9602 15.8062 40.9611 15.7653 40.9602C15.6671 40.9591 15.6122 40.9133 15.6119 40.811C15.6116 40.7209 15.6094 40.6308 15.6094 40.5408C15.6094 37.249 15.6094 33.957 15.6094 30.6653H15.6105H15.6102Z" fill="white"/>
<path d="M15.2635 30.6849C15.2635 33.9931 15.2635 37.3011 15.2635 40.6093C15.2635 40.9804 15.2916 41.0023 14.872 40.9998C13.8798 40.9932 12.8876 40.9998 11.8954 41.0009C11.8217 41.0009 11.7466 41.0057 11.6747 40.9938C11.5666 40.9762 11.5307 40.894 11.5333 40.7949C11.5359 40.7011 11.5819 40.6471 11.6829 40.6357C11.8943 40.6124 12.1056 40.5851 12.3159 40.5525C13.4116 40.3825 14.199 39.7124 14.4749 38.6467C14.6595 37.9337 14.6843 37.2073 14.6851 36.4798C14.6897 32.5085 14.6891 28.537 14.6851 24.5658C14.6846 23.9193 14.6465 23.2742 14.4766 22.6444C14.2311 21.7336 13.6323 21.1769 12.7434 20.9041C12.4057 20.8003 12.0601 20.7429 11.7117 20.6975C11.5987 20.6827 11.529 20.6389 11.5313 20.5122C11.5333 20.4127 11.574 20.3579 11.6758 20.3547C11.725 20.3533 11.7742 20.3522 11.8234 20.3522C12.8731 20.3522 13.9228 20.3519 14.9722 20.3519C15.0049 20.3519 15.0379 20.3507 15.0706 20.3527C15.2347 20.3627 15.2529 20.3783 15.2609 20.5392C15.2657 20.6372 15.2629 20.7355 15.2629 20.8339C15.2629 24.1174 15.2629 27.4009 15.2629 30.6844L15.2635 30.6849Z" fill="white"/>
</svg>
