<svg width="133" height="49" viewBox="0 0 133 49" fill="none" xmlns="http://www.w3.org/2000/svg">
<path d="M132.121 46.9809C132.121 47.3438 132.055 47.7044 132.015 48.0651C131.984 48.3452 131.809 48.4654 131.544 48.4745C131.354 48.4824 131.163 48.4802 130.971 48.4802L111.165 48.3883H91.3205C91.0705 48.3883 90.8217 48.4053 90.5717 48.3883H79.2688C79.1738 48.3883 79.0777 48.3894 78.9815 48.3883C78.7519 48.3849 78.6241 48.2783 78.623 48.0379C78.623 47.8258 78.6173 47.6148 78.6173 47.4039V24.2236H78.6196V0.813163C78.6196 0.281261 78.8797 0.0158776 79.4023 0.0147435C83.2186 0.0147435 87.036 0.0147435 90.8511 0.0158776C90.9857 0.0158776 91.1203 0.0181459 91.2538 0.0226823C91.4879 0.0294871 91.5965 0.15424 91.6055 0.3856C91.6146 0.604485 91.5456 0.771201 91.3149 0.812029C90.9948 0.869869 90.6724 0.916368 90.35 0.95833C88.7122 1.16587 87.2283 1.70345 86.0553 2.92829C85.302 3.71537 84.8971 4.68051 84.6347 5.71596C84.3949 6.66862 84.275 7.63829 84.2705 8.6227C84.2252 16.4254 84.1721 24.2293 84.1393 32.0309C84.1302 34.4715 84.1608 36.9133 84.206 39.3539C84.2309 40.6593 84.361 41.9544 84.758 43.2144C85.3687 45.1515 86.3313 45.9307 87.0959 46.3866C87.321 46.5215 87.8368 46.7302 88.3978 46.9321C89.4791 47.3211 90.6848 46.9105 91.3092 45.9454C91.929 44.9757 91.7831 45.2343 92.4211 44.2737C93.8643 42.0985 95.3144 39.9255 96.7588 37.7537C98.8196 34.6519 100.88 31.5478 102.941 28.446C105.671 24.3348 108.399 20.2259 111.127 16.1136C114.249 11.4126 117.372 6.70944 120.483 1.99945C120.651 1.74427 120.944 1.52766 120.884 1.15453C120.584 1.13639 120.283 1.09442 119.986 1.09669C114.959 1.12391 109.935 1.14319 104.907 1.19536C101.841 1.22598 98.7721 1.30424 95.7046 1.37569C95.2228 1.3893 94.8959 1.22938 94.6945 0.791615C94.5746 0.527365 94.4514 0.263115 94.3281 0H115.428C119.897 0.0102071 124.367 0.0170118 128.835 0.0272188C129.106 0.0272188 129.374 0.0317553 129.639 0.0453647C129.892 0.0601082 129.991 0.199605 129.889 0.435501C129.726 0.821102 129.589 1.22938 129.363 1.57642C127.27 4.79392 125.157 8.00121 123.051 11.2119C120.794 14.646 118.545 18.0847 116.286 21.5154C113.701 25.4439 111.108 29.368 108.521 33.2977C105.588 37.7537 102.659 42.2108 99.7335 46.6746C99.6046 46.872 99.3128 47.0852 99.4915 47.32C99.5854 47.4424 99.9111 47.4107 100.134 47.4107C104.064 47.4062 107.998 47.4277 111.931 47.3755C113.596 47.354 115.266 47.2451 116.917 47.0387C118.89 46.7903 120.843 46.4059 122.713 45.6721C124.936 44.8011 126.816 43.456 128.374 41.6516C129.989 39.7792 131.125 37.6448 131.781 35.2529C131.844 35.0204 131.952 34.8016 132.042 34.5759H132.043C132.069 34.8061 132.12 35.0386 132.12 35.2722C132.127 39.1747 132.127 43.0784 132.12 46.9809H132.121Z" fill="white"/>
<path d="M77.8156 47.5635V24.2665V1.14634C77.8156 0.914981 77.8223 0.684755 77.811 0.454529C77.7929 0.0700627 77.7488 0.0383074 77.3473 0.015625C77.3337 0.015625 77.3201 0.015625 77.3066 0.015625C74.7956 0.015625 72.2834 0.015625 69.7724 0.015625C69.657 0.015625 69.5417 0.0178933 69.4263 0.0212956C69.1888 0.0281003 69.0938 0.15739 69.0892 0.391018C69.0836 0.688157 69.2465 0.791362 69.5111 0.825385C70.3255 0.931993 71.1342 1.06695 71.9237 1.31079C74.0027 1.95157 75.403 3.25807 75.9775 5.39588C76.3746 6.87364 76.4628 8.38769 76.465 9.90514C76.4741 19.2265 76.4752 28.5489 76.465 37.8702C76.4628 39.5782 76.4051 41.2828 75.973 42.9567C75.3272 45.4575 74.0332 46.5417 72.4203 47.0316C72.3988 47.0384 72.2891 47.0668 72.133 47.1065C71.2066 47.3424 70.2791 47.0022 69.5632 46.367C69.3992 46.2219 69.3245 46.1527 69.3053 46.1323C69.0926 45.9043 69.0768 45.9213 68.5576 45.1365C67.2829 43.2142 66.2774 41.1433 65.239 39.0928C63.6408 35.9298 62.1172 32.7247 60.5586 29.5413C60.2928 28.9992 60.0417 28.4446 59.7103 27.9433C58.7749 26.5188 57.4572 25.5401 55.9347 24.8165C55.7685 24.7383 55.6293 24.6044 55.4778 24.4967C55.644 24.4128 55.8069 24.3323 55.9732 24.2495C55.9902 24.2427 56.0116 24.2427 56.0286 24.237C57.6981 23.8423 59.328 23.3433 60.8335 22.4882C62.6217 21.4765 64.0593 20.0986 65.0558 18.3056C66.5613 15.5973 66.8859 12.7019 66.162 9.70213C65.3318 6.26688 63.2653 3.81265 60.1446 2.20901C58.2874 1.25635 56.2922 0.757338 54.246 0.467004C52.3967 0.206157 50.5304 0.0938792 48.6596 0.0916109C45.056 0.0882086 41.4535 0.0768674 37.8498 0.0700627C37.0015 0.0666603 37.0377 -0.0864457 37.04 0.883226C37.0445 5.47073 37.0603 10.0594 37.0615 14.6435C37.0648 17.9642 37.0524 21.2815 37.0467 24.5988C37.0467 25.1749 37.0682 25.1919 37.6338 25.2021H37.7503C40.2432 25.2259 42.7361 25.2634 45.2279 25.2736C47.0071 25.2781 48.5363 25.9302 49.8529 27.0791C50.751 27.8605 51.5144 28.7859 52.1207 29.8146C53.2394 31.7108 54.3614 33.6059 55.3907 35.5487C57.361 39.2686 59.0158 43.1405 60.6751 47.0078C60.89 47.5046 61.1196 47.9945 61.3481 48.4856H69.7102C69.7871 48.4856 69.864 48.4833 69.9409 48.4833C71.5493 48.4822 73.1578 48.4731 74.7662 48.4742H74.7673C75.4787 48.4742 76.1902 48.4754 76.9016 48.481C77.8834 48.4867 77.8167 48.4357 77.8167 47.5647L77.8156 47.5635ZM50.1979 23.9251V23.9274C49.2896 24.22 48.3587 24.3912 47.3928 24.3765C46.0705 24.3595 44.7449 24.3765 43.4227 24.3765C42.606 24.3765 42.6038 24.3742 42.6038 23.5781V12.7472H42.5789V1.91868C42.5811 1.4363 42.8304 1.19435 43.3265 1.19284C44.5526 1.1883 45.7799 1.18036 47.0059 1.1781C48.4221 1.17469 49.8076 1.39585 51.0993 1.96404C52.6659 2.65585 54.0379 3.638 55.1531 4.95925C56.5082 6.56176 57.3565 8.4081 57.6777 10.4654C57.87 11.6936 57.9017 12.94 57.7727 14.1978C57.6336 15.5542 57.3486 16.8584 56.7649 18.0776C55.3929 20.9378 53.2337 22.9362 50.1979 23.9251Z" fill="white"/>
<path d="M74.7681 48.4767H74.767C73.1586 48.4755 71.5502 48.4845 69.9418 48.4856C69.8649 48.4856 69.788 48.4879 69.7111 48.4879H74.9242C74.8756 48.4845 74.8236 48.4811 74.7681 48.4767Z" fill="white"/>
<path d="M18.1336 0H35.5455C36.2615 0.00226824 36.2638 0.00226818 36.2638 0.706556C36.266 8.49568 36.266 16.2837 36.2683 24.0717V24.1885C36.2604 25.1808 36.1925 25.233 35.1926 25.115C34.9483 25.0856 34.8477 24.9812 34.8499 24.7453C34.8533 24.218 34.8522 23.6917 34.8499 23.1644C34.8386 19.1439 34.8511 15.1223 34.8036 11.1019C34.7855 9.5833 34.6169 8.06698 34.5332 6.54953C34.4891 5.73637 34.1317 5.1024 33.5198 4.59205C32.253 3.53391 30.8436 2.70147 29.3167 2.10492C28.5668 1.81119 27.7411 1.70571 26.9448 1.54013C26.4697 1.44146 25.9868 1.35414 25.5038 1.32919C23.9508 1.2464 22.3967 1.16134 20.8426 1.14092C19.207 1.11824 17.5715 1.16928 15.9348 1.18856H15.8771C15.4428 1.19536 15.2234 1.40857 15.22 1.8282C15.2177 2.10152 15.2188 2.37484 15.2188 2.64817C15.2245 8.99242 15.2301 15.3367 15.2369 21.6798C15.2369 22.4011 15.2765 22.4737 15.9687 22.476C18.1913 22.485 20.4037 22.3682 22.5347 21.6458C24.211 21.0776 25.6825 20.2009 26.7559 18.7526C27.5443 17.6888 28.0612 16.4958 28.3224 15.1995C28.4684 14.4748 28.5792 13.7421 28.6923 13.0106C28.7737 12.4821 28.8348 12.3857 29.1402 12.4095C29.4705 12.4367 29.5859 12.5955 29.5813 13.0968C29.5757 13.7603 29.535 14.4226 29.5304 15.086C29.4999 19.4966 29.4773 23.9083 29.4467 28.3201C29.4354 29.9986 29.4117 31.6771 29.3902 33.3556C29.3879 33.5302 29.3936 33.7105 29.3563 33.8795C29.3031 34.1199 29.1018 34.1426 28.8948 34.1324C28.707 34.1234 28.5487 34.0825 28.517 33.8534C28.4604 33.4281 28.3994 33.004 28.3349 32.5787C28.1121 31.1089 27.7671 29.6731 27.0398 28.3598C25.9392 26.3694 24.272 25.0674 22.1139 24.4051C20.1062 23.7893 18.0386 23.5897 15.9461 23.6135C15.2188 23.6214 15.2132 23.6237 15.2143 24.3132C15.22 29.6424 15.212 34.9705 15.2437 40.2998C15.2516 41.6652 15.4405 43.0171 15.9269 44.3134C16.5524 45.9783 17.6801 46.3934 19.3281 47.0512C20.1866 47.3937 21.088 47.5139 21.9952 47.6216C22.149 47.6398 22.3017 47.6681 22.4532 47.701C22.6908 47.7521 22.7439 47.9233 22.7338 48.1422C22.7224 48.394 22.5765 48.479 22.3514 48.4802C22.1954 48.4802 22.0404 48.4824 21.8843 48.4824C14.8139 48.4824 7.74463 48.4824 0.674221 48.4824C0.596176 48.4824 0.518131 48.4813 0.440086 48.4824C0.210476 48.487 0.0136677 48.4734 0.0136677 48.1535C0.0136677 47.7974 0.0668287 47.6987 0.421989 47.6454C0.978483 47.5627 1.54176 47.5128 2.09486 47.4129C4.45544 46.9911 6.01407 46.3639 6.7719 44.0923C7.16325 42.9218 7.32952 41.7038 7.3544 40.4721C7.52746 31.9039 7.52294 23.3356 7.45394 14.7662C7.43584 12.6193 7.4053 10.4724 7.34536 8.32556C7.31142 7.11319 7.09539 5.92237 6.64748 4.78938C6.0661 3.32183 5.0436 2.27504 3.57093 1.68757C2.55748 1.28269 1.51801 0.974208 0.427645 0.851723C0.0487314 0.814297 -0.0677703 0.638509 0.0362894 0.271054C0.0611733 0.182593 0.167495 0.0827906 0.257982 0.0533035C0.382401 0.0136094 0.52718 0.0317553 0.66291 0.0317553H18.1325V0H18.1336Z" fill="white"/>
</svg>
